<svg width="86" height="86" viewBox="0 0 86 86" fill="none" xmlns="http://www.w3.org/2000/svg">
<path d="M67.5387 1.24987C65.876 -0.412798 63.124 -0.412798 61.4613 1.24987L44.2499 18.4613C42.5872 20.124 42.5872 22.876 44.2499 24.5387L61.4613 41.753C63.124 43.4157 65.876 43.4157 67.5387 41.753L84.753 24.5415C86.4157 22.8789 86.4157 20.1269 84.753 18.4642L67.5387 1.24987ZM65.5148 3.27947L82.7234 20.4881C83.3025 21.0671 83.3025 21.9357 82.7234 22.5148L65.5148 39.7263C64.9357 40.3053 64.0671 40.3053 63.4881 39.7263L46.2766 22.5148C45.6975 21.9357 45.6975 21.0671 46.2766 20.4881L63.4881 3.27947C64.0671 2.7004 64.9357 2.7004 65.5148 3.27947ZM47.3 51.6C44.9436 51.6 43 53.5436 43 55.9V81.7C43 84.0564 44.9436 86 47.3 86H73.1C75.4564 86 77.4 84.0564 77.4 81.7V55.9C77.4 53.5436 75.4564 51.6 73.1 51.6H47.3ZM47.3 54.4667H73.1C73.9199 54.4667 74.5333 55.0801 74.5333 55.9V81.7C74.5333 82.5199 73.9199 83.1333 73.1 83.1333H47.3C46.4801 83.1333 45.8667 82.5199 45.8667 81.7V55.9C45.8667 55.0801 46.4801 54.4667 47.3 54.4667ZM4.3 8.6C1.9436 8.6 0 10.5436 0 12.9V38.7C0 41.0564 1.9436 43 4.3 43H30.1C32.4564 43 34.4 41.0564 34.4 38.7V12.9C34.4 10.5436 32.4564 8.6 30.1 8.6H4.3ZM4.3 11.4667H30.1C30.9199 11.4667 31.5333 12.0801 31.5333 12.9V38.7C31.5333 39.5199 30.9199 40.1333 30.1 40.1333H4.3C3.48013 40.1333 2.86667 39.5199 2.86667 38.7V12.9C2.86667 12.0801 3.48013 11.4667 4.3 11.4667ZM4.3 51.6C1.9436 51.6 0 53.5436 0 55.9V81.7C0 84.0564 1.9436 86 4.3 86H30.1C32.4564 86 34.4 84.0564 34.4 81.7V55.9C34.4 53.5436 32.4564 51.6 30.1 51.6H4.3ZM4.3 54.4667H30.1C30.9199 54.4667 31.5333 55.0801 31.5333 55.9V81.7C31.5333 82.5199 30.9199 83.1333 30.1 83.1333H4.3C3.48013 83.1333 2.86667 82.5199 2.86667 81.7V55.9C2.86667 55.0801 3.48013 54.4667 4.3 54.4667Z" fill="white"/>
</svg>
