<svg width="51" height="56" viewBox="0 0 51 56" fill="none" xmlns="http://www.w3.org/2000/svg">
<rect width="51" height="56" rx="2" fill="#A3DFD5"/>
<path d="M15.968 4V7.288H9.104V10.84H14.24V14.032H9.104V20.848H5V4H15.968Z" fill="black"/>
<path d="M37.656 48.488H44.904V51.848H33V48.728L40.2 38.36H33V35H44.904V38.12L37.656 48.488Z" fill="black"/>
<path d="M16 28.864C16 27.488 16.256 26.28 16.768 25.24C17.296 24.2 18.008 23.4 18.904 22.84C19.8 22.28 20.8 22 21.904 22C22.848 22 23.672 22.192 24.376 22.576C25.096 22.96 25.648 23.464 26.032 24.088V22.192H30.136V35.584H26.032V33.688C25.632 34.312 25.072 34.816 24.352 35.2C23.648 35.584 22.824 35.776 21.88 35.776C20.792 35.776 19.8 35.496 18.904 34.936C18.008 34.36 17.296 33.552 16.768 32.512C16.256 31.456 16 30.24 16 28.864ZM26.032 28.888C26.032 27.864 25.744 27.056 25.168 26.464C24.608 25.872 23.92 25.576 23.104 25.576C22.288 25.576 21.592 25.872 21.016 26.464C20.456 27.04 20.176 27.84 20.176 28.864C20.176 29.888 20.456 30.704 21.016 31.312C21.592 31.904 22.288 32.2 23.104 32.2C23.92 32.2 24.608 31.904 25.168 31.312C25.744 30.72 26.032 29.912 26.032 28.888Z" fill="black"/>
<path d="M7.448 31.44C6.728 31.44 6.136 31.232 5.672 30.816C5.224 30.384 5 29.856 5 29.232C5 28.592 5.224 28.064 5.672 27.648C6.136 27.216 6.728 27 7.448 27C8.152 27 8.728 27.216 9.176 27.648C9.64 28.064 9.872 28.592 9.872 29.232C9.872 29.856 9.64 30.384 9.176 30.816C8.728 31.232 8.152 31.44 7.448 31.44ZM9.488 32.832V46.224H5.384V32.832H9.488Z" fill="black"/>
<path d="M31 14.04C31 12.664 31.256 11.456 31.768 10.416C32.296 9.376 33.008 8.576 33.904 8.016C34.8 7.456 35.8 7.176 36.904 7.176C37.784 7.176 38.584 7.36 39.304 7.728C40.04 8.096 40.616 8.592 41.032 9.216V3H45.136V20.76H41.032V18.84C40.648 19.48 40.096 19.992 39.376 20.376C38.672 20.76 37.848 20.952 36.904 20.952C35.8 20.952 34.8 20.672 33.904 20.112C33.008 19.536 32.296 18.728 31.768 17.688C31.256 16.632 31 15.416 31 14.04ZM41.032 14.064C41.032 13.04 40.744 12.232 40.168 11.64C39.608 11.048 38.92 10.752 38.104 10.752C37.288 10.752 36.592 11.048 36.016 11.64C35.456 12.216 35.176 13.016 35.176 14.04C35.176 15.064 35.456 15.88 36.016 16.488C36.592 17.08 37.288 17.376 38.104 17.376C38.92 17.376 39.608 17.08 40.168 16.488C40.744 15.896 41.032 15.088 41.032 14.064Z" fill="black"/>
</svg>
