<svg width="74" height="76" viewBox="0 0 74 76" fill="none" xmlns="http://www.w3.org/2000/svg">
<rect width="74" height="76" rx="2" fill="#A3DFD5"/>
<path d="M31.1153 19V26.2208H17.2751V34.0214H27.631V41.0313H17.2751V56H9V19H31.1153Z" fill="black"/>
<path d="M48.1917 19C51.7727 19 54.902 19.773 57.5797 21.3191C60.2575 22.8651 62.3222 25.0437 63.774 27.8547C65.258 30.6306 66 33.8457 66 37.5C66 41.1192 65.258 44.3343 63.774 47.1453C62.3222 49.9563 60.2413 52.1349 57.5314 53.6809C54.8537 55.227 51.7404 56 48.1917 56H35.4645V19H48.1917ZM47.6593 48.1994C50.7887 48.1994 53.2244 47.2683 54.9666 45.406C56.7087 43.5437 57.5797 40.9084 57.5797 37.5C57.5797 34.0916 56.7087 31.4387 54.9666 29.5413C53.2244 27.6439 50.7887 26.6952 47.6593 26.6952H43.7396V48.1994H47.6593Z" fill="black"/>
</svg>
